{"title":"Saving Abel - Stupid Girls (Only in Hollywood)","uid":5611749,"size":28034235,"categoryP":"video","categoryS":"music_videos","magnet":"?xt=urn:btih:a1b72fc164e34dbad72fa9c4d98b65efa93b5462&amp;dn=Saving+Abel+-+Stupid+Girls+%28Only+in+Hollywood%29&amp;tr=udp%3A%2F%2Ftracker.openbittorrent.com%3A80&amp;tr=udp%3A%2F%2Fopen.demonii.com%3A1337&amp;tr=udp%3A%2F%2Ftracker.coppersurfer.tk%3A6969&amp;tr=udp%3A%2F%2Fexodus.desync.com%3A6969","seeders":0,"leechers":0,"uploader":"ruudsach","files":-1,"time":1275902946,"description":"&quot;Stupid Girl (Only In Hollywood)&quot; is the first single by the hard rock band Saving Abel from their second album &quot;Miss America&quot;. The song was inspired by a quote from Marilyn Monroe, in which she stated, &quot;A wise girl always kisses before she's kissed, leaves before she's left and forgets before she's forgotten.&quot;\n\n\n\nGeneral\nComplete name               : Saving Abel - Stupid Girl (Only In Hollywood).flv\nFormat                      : Flash Video\nFile size                   : 26.7 MiB\nDuration                    : 4mn 1s\nOverall bit rate            : 929 Kbps\n\nVideo\nFormat                      : AVC\nFormat/Info                 : Advanced Video Codec\nBit rate                    : 801 Kbps\nWidth                       : 640 pixels\nHeight                      : 320 pixels\nDisplay aspect ratio        : 2.000\nFrame rate                  : 29.921 fps\nColor space                 : YUV\nBit depth                   : 8 bits\nScan type                   : Progressive\nStream size                 : 23.1 MiB (86%)\n\nAudio\nFormat                      : AAC\nFormat/Info                 : Advanced Audio Codec\nBit rate                    : 120 Kbps\nChannel(s)                  : 2 channels\nSampling rate               : 44.1 KHz\nBit depth                   : 16 bits\nStream size                 : 3.47 MiB (13%)","torrent":{"xt":"urn:btih:a1b72fc164e34dbad72fa9c4d98b65efa93b5462","amp;dn":"Saving+Abel+-+Stupid+Girls+%28Only+in+Hollywood%29","amp;tr":["udp%3A%2F%2Ftracker.openbittorrent.com%3A80","udp%3A%2F%2Fopen.demonii.com%3A1337","udp%3A%2F%2Ftracker.coppersurfer.tk%3A6969","udp%3A%2F%2Fexodus.desync.com%3A6969"],"infoHash":"a1b72fc164e34dbad72fa9c4d98b65efa93b5462","infoHashBuffer":{"type":"Buffer","data":[161,183,47,193,100,227,77,186,215,47,169,196,217,139,101,239,169,59,84,98]},"announce":[],"urlList":[]}}